<svg xmlns="http://www.w3.org/2000/svg" xmlns:xlink="http://www.w3.org/1999/xlink" width="179px" height="25px" viewBox="0 0 179 25"><title>dhl-3</title><g id="Page-1" stroke="none" stroke-width="1" fill="none" fill-rule="evenodd"><g id="Group-6-Copy" transform="translate(-1411.000000, -9.000000)" fill="#5F6567" fill-rule="nonzero"><g id="dhl-3" transform="translate(1411.759372, 9.000000)"><path d="M31.3023297,0 L25.615616,7.6734979 L56.6091825,7.6734979 C58.1764486,7.6734979 58.1569067,8.25958702 57.3908614,9.29591678 C56.6130909,10.3438907 55.3115956,12.1564974 54.5181916,13.2238783 C54.115627,13.7633908 53.3886657,14.7453812 55.7962365,14.7453812 L68.4711591,14.7453812 L72.227126,9.6762925 C74.556529,6.53625213 72.4303625,0.00388138488 64.1015743,0.00388138488 L31.3023297,0 Z" id="Path"></path><path d="M23.3135718,25 L34.7378082,9.58313926 L48.9135542,9.58313926 C50.4808203,9.58313926 50.4612784,10.1731098 49.6952331,11.2055581 L46.8030213,15.1179941 C46.4004567,15.6575066 45.6734954,16.639497 48.0810662,16.639497 L67.0680456,16.639497 C65.4929627,18.7897842 60.3651494,25 51.1726061,25 L23.3135718,25 Z M88.732275,16.6356156 L82.5374701,25 L66.1964737,25 L72.3912786,16.6356156 L88.732275,16.6356156 Z M113.761632,14.7414998 L73.7983005,14.7414998 L84.7261709,0 L101.059351,0 L94.7981029,8.45365626 L102.087258,8.45365626 L108.356323,0 L124.689502,0 L113.761632,14.7414998 Z M112.358518,16.6356156 L106.163713,25 L89.8305338,25 L96.0253387,16.6356156 L112.358518,16.6356156 Z M0,19.9347927 L24.0678919,19.9347927 L22.7546714,21.7085856 L0,21.7085856 L0,19.9347927 Z M0,16.6356156 L26.5145467,16.6356156 L25.1974178,18.4094085 L0,18.4094085 L0,16.6356156 Z M0,23.2339699 L21.6251455,23.2339699 L20.3158334,25 L0,25 L0,23.2339699 Z M178,21.7085856 L154.018093,21.7085856 L155.335222,19.9347927 L178,19.9347927 L178,21.7085856 Z M178,25 L151.583163,25 L152.888567,23.2339699 L178,23.2339699 L178,25 Z M157.777968,16.6356156 L178,16.6356156 L178,18.4132899 L156.464748,18.4132899 L157.777968,16.6356156 Z M147.311288,0 L136.383418,14.7414998 L119.07314,14.7414998 L130.008827,0 L147.311288,0 Z M117.673935,16.6356156 C117.673935,16.6356156 116.481874,18.2580345 115.899524,19.0343114 C113.851525,21.7900947 115.661111,24.9961186 122.356191,24.9961186 L148.589333,24.9961186 L154.784138,16.6356156 L117.673935,16.6356156 Z" id="Shape"></path></g></g></g></svg>