<svg xmlns="http://www.w3.org/2000/svg" xmlns:xlink="http://www.w3.org/1999/xlink" width="183px" height="39px" viewBox="0 0 183 39"><title>Microsoft_logo_(2012)</title><g id="Page-1" stroke="none" stroke-width="1" fill="none" fill-rule="evenodd"><g id="Group-6-Copy" transform="translate(-333.000000, -2.000000)" fill="#5F6567" fill-rule="nonzero"><g id="Microsoft_logo_(2012)" transform="translate(333.000000, 2.000000)"><path d="M76.1054502,7.8 L76.1054502,31.2 L72.0399882,31.2 L72.0399882,12.8375 L71.985782,12.8375 L64.7221564,31.2 L62.0118483,31.2 L54.5856043,12.8375 L54.5313981,12.8375 L54.5313981,31.2 L50.791173,31.2 L50.791173,7.8 L56.6454384,7.8 L63.3670024,25.1333333 L63.4754147,25.1333333 L70.5764218,7.8 L76.1054502,7.8 Z M79.4662322,9.5875 C79.4662322,8.9375 79.6830569,8.39583333 80.1709123,7.9625 C80.6587678,7.52916667 81.2008294,7.3125 81.8513033,7.3125 C82.5559834,7.3125 83.1522512,7.52916667 83.5859005,7.9625 C84.0195498,8.39583333 84.2905806,8.9375 84.2905806,9.5875 C84.2905806,10.2375 84.0737559,10.7791667 83.5859005,11.2125 C83.098045,11.6458333 82.5559834,11.8625 81.8513033,11.8625 C81.1466232,11.8625 80.6045616,11.6458333 80.1709123,11.2125 C79.737263,10.725 79.4662322,10.1833333 79.4662322,9.5875 Z M83.8569313,14.4083333 L83.8569313,31.2 L79.8998815,31.2 L79.8998815,14.4083333 L83.8569313,14.4083333 Z M95.8364929,28.3291667 C96.4327607,28.3291667 97.0832346,28.2208333 97.7879147,27.8958333 C98.4925948,27.625 99.1430687,27.2458333 99.7393365,26.8125 L99.7393365,30.4958333 C99.0888626,30.875 98.3841825,31.1458333 97.57109,31.3083333 C96.7579976,31.4708333 95.8906991,31.5791667 94.9149882,31.5791667 C92.4215047,31.5791667 90.4158768,30.8208333 88.8981043,29.25 C87.3261256,27.6791667 86.5672393,25.675 86.5672393,23.2916667 C86.5672393,20.5833333 87.3803318,18.3625 88.9523104,16.6291667 C90.5242891,14.8958333 92.7467417,14.0291667 95.6738744,14.0291667 C96.4327607,14.0291667 97.1916469,14.1375 97.896327,14.3 C98.6552133,14.4625 99.251481,14.7333333 99.6851303,14.95 L99.6851303,18.7416667 C99.0888626,18.3083333 98.4383886,17.9291667 97.8421209,17.7125 C97.1916469,17.4958333 96.541173,17.3333333 95.8906991,17.3333333 C94.3187204,17.3333333 93.0719787,17.8208333 92.0962678,18.85 C91.1205569,19.8791667 90.6869076,21.2333333 90.6869076,22.9666667 C90.6869076,24.6458333 91.174763,26 92.0962678,26.9208333 C93.0177725,27.8416667 94.2645142,28.3291667 95.8364929,28.3291667 Z M110.960012,14.1375 C111.285249,14.1375 111.55628,14.1375 111.82731,14.1916667 C112.098341,14.2458333 112.315166,14.3 112.477784,14.3541667 L112.477784,18.3625 C112.26096,18.2 111.989929,18.0375 111.55628,17.9291667 C111.12263,17.8208333 110.688981,17.7125 110.092713,17.7125 C109.117002,17.7125 108.30391,18.1458333 107.653436,18.9583333 C107.002962,19.7708333 106.623519,21.0166667 106.623519,22.75 L106.623519,31.2 L102.666469,31.2 L102.666469,14.4083333 L106.623519,14.4083333 L106.623519,17.0625 L106.677725,17.0625 C107.057168,16.1416667 107.59923,15.4375 108.30391,14.8958333 C109.062796,14.4083333 109.930095,14.1375 110.960012,14.1375 Z M112.694609,23.075 C112.694609,20.3125 113.507701,18.0916667 115.025474,16.4666667 C116.597453,14.8416667 118.765699,14.0291667 121.530213,14.0291667 C124.132109,14.0291667 126.191943,14.7875 127.655509,16.3583333 C129.119076,17.9291667 129.877962,20.0416667 129.877962,22.6958333 C129.877962,25.4041667 129.06487,27.5708333 127.547097,29.1958333 C125.975118,30.8208333 123.861078,31.6333333 121.15077,31.6333333 C118.548874,31.6333333 116.48904,30.875 114.971268,29.3583333 C113.453495,27.7875 112.694609,25.675 112.694609,23.075 Z M116.814277,22.9125 C116.814277,24.6458333 117.19372,26 118.006813,26.9208333 C118.819905,27.8416667 119.958235,28.3291667 121.421801,28.3291667 C122.831161,28.3291667 123.969491,27.8958333 124.728377,26.9208333 C125.487263,26 125.866706,24.6458333 125.866706,22.8041667 C125.866706,21.0166667 125.487263,19.6625 124.728377,18.6875 C123.969491,17.7666667 122.831161,17.2791667 121.476007,17.2791667 C120.012441,17.2791667 118.928318,17.7666667 118.115225,18.7416667 C117.19372,19.7708333 116.814277,21.125 116.814277,22.9125 Z M135.786434,18.85 C135.786434,19.3916667 135.949052,19.8791667 136.328495,20.2041667 C136.707938,20.5291667 137.466825,20.9083333 138.713566,21.3958333 C140.285545,22.0458333 141.423874,22.75 142.020142,23.5083333 C142.670616,24.3208333 142.995853,25.2416667 142.995853,26.3791667 C142.995853,27.95 142.399585,29.1958333 141.152844,30.1708333 C139.960308,31.1458333 138.279917,31.5791667 136.220083,31.5791667 C135.515403,31.5791667 134.756517,31.4708333 133.889218,31.3083333 C133.021919,31.1458333 132.317239,30.9291667 131.720972,30.6583333 L131.720972,26.7583333 C132.425652,27.2458333 133.238744,27.6791667 134.051836,27.95 C134.864929,28.2208333 135.623815,28.3833333 136.328495,28.3833333 C137.195794,28.3833333 137.900474,28.275 138.279917,28.0041667 C138.713566,27.7333333 138.930391,27.3541667 138.930391,26.7583333 C138.930391,26.2166667 138.713566,25.7833333 138.279917,25.35 C137.846268,24.9708333 136.978969,24.5375 135.786434,24.05 C134.322867,23.4541667 133.29295,22.75 132.696682,21.9916667 C132.100415,21.2333333 131.775178,20.2583333 131.775178,19.0666667 C131.775178,17.55 132.371445,16.3041667 133.563981,15.3291667 C134.756517,14.3541667 136.328495,13.8666667 138.225711,13.8666667 C138.821979,13.8666667 139.472453,13.9208333 140.177133,14.0833333 C140.881813,14.2458333 141.532287,14.4083333 142.020142,14.5708333 L142.020142,18.4166667 C141.478081,18.0916667 140.881813,17.7666667 140.177133,17.4958333 C139.472453,17.225 138.767773,17.1166667 138.117299,17.1166667 C137.358412,17.1166667 136.762145,17.2791667 136.382701,17.55 C136.003258,17.9291667 135.786434,18.3083333 135.786434,18.85 Z M144.676244,23.075 C144.676244,20.3125 145.489336,18.0916667 147.007109,16.4666667 C148.579088,14.8416667 150.747334,14.0291667 153.511848,14.0291667 C156.113744,14.0291667 158.173578,14.7875 159.637145,16.3583333 C161.100711,17.9291667 161.859597,20.0416667 161.859597,22.6958333 C161.859597,25.4041667 161.046505,27.5708333 159.528732,29.1958333 C157.956754,30.8208333 155.842713,31.6333333 153.132405,31.6333333 C150.530509,31.6333333 148.470675,30.875 146.952903,29.3583333 C145.489336,27.7875 144.676244,25.675 144.676244,23.075 Z M148.795912,22.9125 C148.795912,24.6458333 149.175355,26 149.988448,26.9208333 C150.80154,27.8416667 151.93987,28.3291667 153.403436,28.3291667 C154.812796,28.3291667 155.951126,27.8958333 156.710012,26.9208333 C157.468898,26 157.848341,24.6458333 157.848341,22.8041667 C157.848341,21.0166667 157.468898,19.6625 156.710012,18.6875 C155.951126,17.7666667 154.812796,17.2791667 153.457642,17.2791667 C151.994076,17.2791667 150.909953,17.7666667 150.09686,18.7416667 C149.229562,19.7708333 148.795912,21.125 148.795912,22.9125 Z M175.031694,17.6583333 L169.123223,17.6583333 L169.123223,31.2 L165.111967,31.2 L165.111967,17.6583333 L162.293246,17.6583333 L162.293246,14.4083333 L165.111967,14.4083333 L165.111967,12.0791667 C165.111967,10.3458333 165.708235,8.88333333 166.846564,7.74583333 C167.984893,6.60833333 169.44846,6.06666667 171.237263,6.06666667 C171.725118,6.06666667 172.158768,6.12083333 172.538211,6.12083333 C172.917654,6.12083333 173.242891,6.22916667 173.513922,6.3375 L173.513922,9.75 C173.405509,9.69583333 173.134479,9.5875 172.809242,9.47916667 C172.484005,9.37083333 172.104562,9.31666667 171.670912,9.31666667 C170.85782,9.31666667 170.207346,9.5875 169.773697,10.075 C169.340047,10.5625 169.123223,11.375 169.123223,12.35 L169.123223,14.3541667 L175.031694,14.3541667 L175.031694,10.5625 L178.988744,9.37083333 L178.988744,14.3541667 L183,14.3541667 L183,17.6041667 L178.988744,17.6041667 L178.988744,25.4583333 C178.988744,26.4875 179.205569,27.1916667 179.530806,27.625 C179.910249,28.0583333 180.506517,28.275 181.319609,28.275 C181.536434,28.275 181.807464,28.2208333 182.132701,28.1125 C182.457938,28.0041667 182.728969,27.8958333 182.945794,27.7333333 L182.945794,30.9833333 C182.674763,31.1458333 182.29532,31.2541667 181.699052,31.3625 C181.102784,31.4708333 180.560723,31.525 179.964455,31.525 C178.284064,31.525 177.037322,31.0916667 176.22423,30.225 C175.411137,29.3583333 174.977488,28.0041667 174.977488,26.2166667 L175.031694,17.6583333 L175.031694,17.6583333 Z" id="Shape"></path><rect id="Rectangle" x="0" y="0" width="18.5385071" height="18.525"></rect><rect id="Rectangle" x="20.4899289" y="0" width="18.5385071" height="18.525"></rect><rect id="Rectangle" x="0" y="20.475" width="18.5385071" height="18.525"></rect><rect id="Rectangle" x="20.4899289" y="20.475" width="18.5385071" height="18.525"></rect></g></g></g></svg>