<svg xmlns="http://www.w3.org/2000/svg" xmlns:xlink="http://www.w3.org/1999/xlink" width="164px" height="35px" viewBox="0 0 164 35"><title>Scuola_Logo_OnlyTop</title><g id="Page-1" stroke="none" stroke-width="1" fill="none" fill-rule="evenodd"><g id="Group-6-Copy" transform="translate(-716.000000, -4.000000)" fill="#5F6567"><g id="Scuola_Logo_OnlyTop" transform="translate(716.000000, 4.000000)"><path d="M11.2513721,35 C13.7716795,35 16.0219539,34.6446701 17.9121844,33.9340102 C19.8024149,33.2233503 21.1525796,32.2461929 22.1427003,31.0025381 C23.1328211,29.7588832 23.582876,28.3375635 23.582876,26.7385787 C23.582876,24.8730964 23.0428101,23.3629442 22.0526894,22.2969543 C21.0625686,21.2309645 19.8924259,20.5203046 18.5422613,20.0761421 C17.1920966,19.6319797 15.3918771,19.2766497 13.3216246,18.9213198 C11.4313941,18.6548223 9.99121844,18.2994924 9.18111965,18.0329949 C8.37102086,17.7664975 7.83095499,17.1446701 7.83095499,16.3451777 C7.83095499,15.6345178 8.1909989,15.1015228 9.09110867,14.6573604 C9.90120746,14.213198 11.1613611,13.9467005 12.7815587,13.9467005 C15.481888,13.9467005 18.0021954,14.5685279 20.3424808,15.9010152 L22.8627881,10.571066 C21.6926454,9.86040609 20.1624588,9.32741117 18.3622393,8.88324873 C16.5620198,8.52791878 14.6717892,8.26142132 12.8715697,8.26142132 C10.3512623,8.26142132 8.1909989,8.61675127 6.39077936,9.32741117 C4.59055982,10.0380711 2.97036224,11.1928934 1.98024149,12.4365482 C0.990120746,13.680203 0.540065862,15.1903553 0.540065862,16.7893401 C0.540065862,18.7436548 1.08013172,20.2538071 2.07025247,21.319797 C3.06037322,22.3857868 4.32052689,23.0964467 5.67069155,23.5406091 C7.0208562,23.9847716 8.82107574,24.3401015 10.9813392,24.606599 C12.7815587,24.8730964 14.1317234,25.1395939 15.0318332,25.4060914 C15.9319429,25.7614213 16.3819978,26.2944162 16.3819978,27.0050761 C16.3819978,28.6040609 14.7618002,29.3147208 11.611416,29.3147208 C9.99121844,29.3147208 8.37102086,29.0482234 6.75082327,28.6040609 C5.13062569,28.1598985 3.69045005,27.5380711 2.52030735,26.8274112 L0,32.1573604 C1.26015368,32.9568528 2.88035126,33.5786802 4.95060373,34.1116751 C7.0208562,34.6446701 9.09110867,35 11.2513721,35 Z M40.4149286,35 C43.2052689,35 45.5455543,34.4670051 47.6158068,33.3121827 C49.6860593,32.1573604 51.2162459,30.5583756 52.1163557,28.5152284 L46.2656422,25.3172589 C44.9154775,27.715736 42.935236,28.8705584 40.4149286,28.8705584 C38.4346872,28.8705584 36.8144896,28.248731 35.4643249,26.9162437 C34.1141603,25.5837563 33.4840834,23.8959391 33.4840834,21.6751269 C33.4840834,19.4543147 34.1141603,17.7664975 35.4643249,16.4340102 C36.7244786,15.1903553 38.4346872,14.4796954 40.4149286,14.4796954 C42.935236,14.4796954 44.9154775,15.6345178 46.2656422,18.0329949 L52.1163557,14.9238579 C51.2162459,12.7918782 49.6860593,11.1928934 47.6158068,10.0380711 C45.5455543,8.88324873 43.115258,8.35025381 40.4149286,8.35025381 C37.6245884,8.35025381 35.104281,8.88324873 32.9440176,10.0380711 C30.7837541,11.1928934 28.9835346,12.7918782 27.7233809,14.7461929 C26.4632272,16.7005076 25.8331504,19.0101523 25.8331504,21.5862944 C25.8331504,24.1624365 26.4632272,26.4720812 27.7233809,28.4263959 C28.9835346,30.3807107 30.6937431,31.9796954 32.9440176,33.1345178 C35.194292,34.2893401 37.6245884,35 40.4149286,35 Z M67.1481888,35 C68.7683864,35 70.298573,34.7335025 71.6487377,34.1116751 C72.9989023,33.4898477 74.259056,32.6903553 75.2491767,31.535533 L75.2491767,34.6446701 L82.4500549,34.6446701 L82.4500549,8.79441624 L74.8891328,8.79441624 L74.8891328,21.5862944 C74.8891328,23.8959391 74.349067,25.5837563 73.2689352,26.8274112 C72.1888035,27.9822335 70.7486279,28.6040609 68.8583974,28.6040609 C65.3479693,28.6040609 63.5477497,26.5609137 63.5477497,22.3857868 L63.5477497,8.79441624 L55.9868277,8.79441624 L55.9868277,23.3629442 C55.9868277,27.1827411 56.9769484,30.1142132 58.9571899,32.0685279 C60.9374314,34.0228426 63.6377607,35 67.1481888,35 Z M101.442371,35 C104.232711,35 106.663008,34.4670051 108.823271,33.3121827 C110.983535,32.1573604 112.693743,30.5583756 113.953897,28.6040609 C115.21405,26.5609137 115.844127,24.3401015 115.844127,21.7639594 C115.844127,19.1878173 115.21405,16.8781726 113.953897,14.9238579 C112.693743,12.9695431 110.983535,11.3705584 108.823271,10.215736 C106.663008,9.06091371 104.232711,8.52791878 101.442371,8.52791878 C98.6520307,8.52791878 96.2217344,9.06091371 94.0614709,10.215736 C91.9012075,11.3705584 90.1909989,12.9695431 88.9308452,14.9238579 C87.6706915,16.8781726 87.0406147,19.1878173 87.0406147,21.7639594 C87.0406147,24.3401015 87.6706915,26.6497462 88.9308452,28.6040609 C90.1909989,30.6472081 91.9012075,32.1573604 94.0614709,33.3121827 C96.2217344,34.4670051 98.7420417,35 101.442371,35 Z M101.442371,28.8705584 C99.4621295,28.8705584 97.9319429,28.248731 96.6717892,26.9162437 C95.4116356,25.5837563 94.7815587,23.8959391 94.7815587,21.6751269 C94.7815587,19.4543147 95.4116356,17.7664975 96.6717892,16.4340102 C97.9319429,15.1015228 99.5521405,14.4796954 101.442371,14.4796954 C103.332602,14.4796954 104.952799,15.1015228 106.212953,16.4340102 C107.473106,17.7664975 108.103183,19.4543147 108.103183,21.6751269 C108.103183,23.8959391 107.473106,25.5837563 106.212953,26.9162437 C104.952799,28.248731 103.422613,28.8705584 101.442371,28.8705584 Z M148.878156,35 C152.748628,35 155.448957,33.8451777 156.889133,31.4467005 L156.889133,34.6446701 L164,34.6446701 L164,19.8984772 C164,16.0786802 162.919868,13.1472081 160.759605,11.2817259 C158.599341,9.41624365 155.448957,8.43908629 151.398463,8.43908629 C149.328211,8.43908629 147.257958,8.70558376 145.277717,9.23857868 C143.297475,9.7715736 141.587267,10.571066 140.147091,11.5482234 L142.84742,16.7893401 C143.74753,16.0786802 144.917673,15.4568528 146.267838,15.0126904 C147.618002,14.5685279 148.968167,14.3908629 150.408342,14.3908629 C152.388584,14.3908629 153.918771,14.8350254 154.908891,15.7233503 C155.899012,16.6116751 156.439078,17.8553299 156.439078,19.4543147 L150.408342,19.4543147 C146.627881,19.4543147 143.74753,20.1649746 141.947311,21.4974619 C140.147091,22.8299492 139.15697,24.784264 139.15697,27.1827411 C139.15697,28.6928934 139.517014,30.0253807 140.327113,31.180203 C141.137212,32.3350254 142.217344,33.3121827 143.74753,33.9340102 C145.277717,34.5558376 146.897914,35 148.878156,35 L148.878156,35 Z M150.768386,30.0253807 C149.418222,30.0253807 148.428101,29.7588832 147.618002,29.2258883 C146.897914,28.6928934 146.447859,27.893401 146.447859,26.9162437 C146.447859,24.8730964 147.978046,23.8959391 151.12843,23.8959391 L156.349067,23.8959391 L156.349067,26.5609137 C155.899012,27.715736 155.178924,28.6040609 154.188804,29.1370558 C153.198683,29.6700508 152.02854,30.0253807 150.768386,30.0253807 Z M124.935236,0 L133.036224,0 L125.835346,27.5380711 L135.736553,27.5380711 L135.736553,34.6446701 L117.734358,34.6446701 L117.734358,27.5380711 L124.935236,0 Z" id="a"></path></g></g></g></svg>