<svg xmlns="http://www.w3.org/2000/svg" xmlns:xlink="http://www.w3.org/1999/xlink" width="132px" height="43px" viewBox="0 0 132 43"><title>Sodexo_logo</title><g id="Page-1" stroke="none" stroke-width="1" fill="none" fill-rule="evenodd"><g id="Group-6-Copy" transform="translate(-1080.000000, 0.000000)" fill="#5F6567" fill-rule="nonzero"><g id="Sodexo_logo" transform="translate(1080.000000, 0.000000)"><path d="M62.52625,26.30725 L61.06375,33.611 C60.42,36.57225 58.63625,38.5485 54.9925,38.5485 C50.81,38.5485 49.70625,35.95475 50.62375,32.30475 C51.9225,27.12725 56.14625,25.58475 62.52625,26.30725 M69.1125,15.86475 L64.66625,16.1485 L63.26,23.29975 C61.56,23.23975 61.025,23.186 59.02625,23.186 C52.76875,23.186 47.3075,25.816 45.865,31.986 C44.565,37.5485 47.725,41.866 54.61625,41.866 C61.675,41.866 64.74625,38.1835 65.85,33.00475 L69.1125,15.86475 Z" id="path5955"></path><path d="M20.875,26.61887 C14.355,26.02512 8.74625,26.56637 8.655,28.78012 C8.51375,32.10387 19.40125,29.20387 19.19125,35.31887 C18.885,44.30262 3.74625,42.23637 0,41.09262 L0.68,38.42637 C7.13875,39.45137 13.9525,39.53637 14.1025,35.97387 C14.2625,32.18762 3.33,35.59137 3.58625,29.46012 C3.7775,24.89262 10.61,22.43012 21.79375,24.07262 L20.875,26.61887 Z" id="path5959"></path><path d="M38.45513,32.73013 C37.51388,36.48013 34.54013,38.83513 30.99888,38.83513 C27.29638,38.83513 25.63013,36.68888 26.62263,32.73013 C27.56513,28.98013 30.57388,26.46263 34.11388,26.46263 C37.65138,26.46263 39.39638,28.98013 38.45513,32.73013 M34.68388,23.39263 C28.20013,23.39263 22.98763,27.14388 21.70638,32.73013 C20.42138,38.32013 23.91263,42.07013 30.39388,42.07013 C36.87513,42.07013 42.08888,38.32013 43.37138,32.73013 C44.65638,27.14388 41.16638,23.39263 34.68388,23.39263" id="path5963"></path><path d="M109.599,41.97526 L103.96275,41.97526 C100.54525,38.76151 94.0065,31.37776 89.19275,23.56401 L93.329,23.56401 C97.90025,29.87151 109.599,41.97526 109.599,41.97526" id="path5967"></path><polygon id="path5971" points="115.5055 5.40625 118.098 0 118.838 5.49625 124.1255 3.64625 120.4305 8.38375 124.438 11.48875 119.08925 11.9025 118.79425 17.6175 115.8205 13.39375 111.44925 17.42375 113.088 11.745 107.933 11.04625 112.9505 8.1875 110.89175 3.29625"></polygon><path d="M126.4965,32.78676 C125.54025,36.59551 122.52025,38.98801 118.924,38.98801 C115.164,38.98801 113.469,36.80801 114.479,32.78676 C115.43525,28.97801 118.49025,26.42051 122.08525,26.42051 C125.68275,26.42051 127.454,28.97801 126.4965,32.78676 M122.66525,23.29926 C116.0815,23.29926 110.78775,27.11051 109.48275,32.78676 C108.179,38.46426 111.72525,42.27426 118.309,42.27426 C124.894,42.27426 130.189,38.46426 131.4915,32.78676 C132.7965,27.11051 129.25025,23.29926 122.66525,23.29926" id="path5975"></path><path d="M84.92138,40.40587 C95.56638,34.49337 104.81263,25.40712 111.37138,17.55212 C106.65638,32.30962 95.30638,40.25212 84.92138,40.40587" id="path5979"></path><path d="M80.708,26.13137 C82.74675,26.13137 83.85675,26.87137 83.85675,28.28512 C83.85675,32.03762 76.5405,31.79012 73.31425,31.13262 C74.44925,28.32387 77.01175,26.13137 80.708,26.13137 M88.24175,28.08012 C88.24175,25.35887 86.073,23.35887 81.15175,23.35887 C73.1705,23.35887 67.98425,28.54012 67.98425,34.95387 C67.98425,39.09637 71.423,42.53887 77.70425,42.53887 C82.03175,42.53887 84.92175,40.40637 84.92175,40.40637 C79.41425,40.99637 72.6505,40.40637 72.6505,34.51387 C72.6505,34.28012 72.663,34.04637 72.68175,33.81262 C80.19675,35.37262 88.24175,33.48512 88.24175,28.08012" id="path5983"></path></g></g></g></svg>