<svg xmlns="http://www.w3.org/2000/svg" xmlns:xlink="http://www.w3.org/1999/xlink" width="133px" height="29px" viewBox="0 0 133 29"><title>Jolie</title><g id="Page-1" stroke="none" stroke-width="1" fill="none" fill-rule="evenodd"><g id="Group-6-Copy" transform="translate(0.000000, -7.000000)" fill="#5F6567" fill-rule="nonzero"><g id="Jolie" transform="translate(0.000000, 7.000000)"><path d="M7.65855637,29 C15.8564477,29 20.8183293,25.6878173 20.8183293,18.6586294 L20.8183293,0.625634518 L5.42930522,0.625634518 L5.42930522,5.22588832 L15.0654231,5.22588832 L15.0654231,18.5114213 C15.0654231,21.8604061 12.081103,23.9949239 6.40010814,23.9949239 C4.31467964,23.9949239 2.15733982,23.7005076 0,23.001269 L0,27.8591371 C2.08542849,28.5583756 4.71019194,29 7.65855637,29 Z M40.7737226,28.8895939 C50.5536632,28.8895939 56.773993,23.1852792 56.773993,14.4263959 C56.773993,5.70431472 50.5536632,0 40.7737226,0 C30.9937821,0 24.7734523,5.70431472 24.7734523,14.4263959 C24.7734523,23.1852792 30.9937821,28.8895939 40.7737226,28.8895939 Z M40.7737226,24.0317259 C34.5533928,24.0317259 30.5263585,20.2779188 30.5263585,14.4263959 C30.5263585,8.5748731 34.5533928,4.78426396 40.7737226,4.78426396 C46.9940524,4.78426396 51.0210868,8.5748731 51.0210868,14.4263959 C51.0210868,20.2779188 46.9940524,24.0317259 40.7737226,24.0317259 Z M83.5609624,28.2271574 L83.5609624,23.4428934 L66.6618005,23.4428934 L66.6618005,0.625634518 L60.9088943,0.625634518 L60.9088943,28.2271574 L83.5609624,28.2271574 Z M93.2689916,28.2271574 L93.2689916,0.625634518 L87.5160854,0.625634518 L87.5160854,28.2271574 L93.2689916,28.2271574 Z M122.860503,28.2271574 L122.860503,23.4428934 L104.055691,23.4428934 L104.055691,16.5241117 L120.631252,16.5241117 L120.631252,11.8870558 L104.055691,11.8870558 L104.055691,5.40989848 L122.572858,5.40989848 L122.572858,0.625634518 L98.3027845,0.625634518 L98.3027845,28.2271574 L122.860503,28.2271574 Z M133,28.2271574 L133,22.3388325 L126.887537,22.3388325 L126.887537,28.2271574 L133,28.2271574 Z" id="Shape"></path></g></g></g></svg>